<?xml version="1.0" encoding="UTF-8"?>
<svg id="Layer_2" data-name="Layer 2" xmlns="http://www.w3.org/2000/svg" viewBox="0 0 143.2861 196.744">
  <defs>
    <style>
      .cls-1 {
        fill: #fbf9eb;
      }

      .cls-2 {
        fill: #f8f2dc;
      }

      .cls-3 {
        fill: #f7f3dc;
      }

      .cls-4 {
        fill: #f8f3dd;
      }

      .cls-5 {
        fill: #fff;
      }

      .cls-6 {
        fill: #f8f8f8;
      }

      .cls-7 {
        fill: #fbf9ec;
      }
    </style>
  </defs>
  <g id="Layer_1-2" data-name="Layer 1">
    <g>
      <path d="M135.943,160.2831c-1.8765,3.5889-3.9695,6.6582-6.3729,9.7676l-3.1434,3.7055-4.347,4.3046c-5.5708,5.0038-11.8996,8.8618-18.7575,11.9284-5.8647,2.6225-11.8932,4.3415-18.2017,5.4651l-5.7309.7526-5.2465.4353c-1.6861.1399-3.4147.1319-5.1026-.0006l-5.4405-.4273-4.4512-.5049-5.55-1.0773c-4.1992-.8151-8.129-2.1708-12.104-3.6899l-3.1814-1.3752c-7.6758-3.318-14.5894-8.1653-20.5732-14.0292C5.2623,163.3094-.8663,146.834.0987,129.4125l.0899-1.6228c.1512-2.7294.6619-5.2679,1.3326-7.9436,1.9161-7.6447,5.1106-14.7843,9.7688-21.2083-.8837-1.7817-1.5158-3.5142-2.0306-5.4339-.8713-3.2493-1.6879-6.4554-2.1452-9.7966l-.3261-2.3827-.4173-3.317-.1442-1.7495c-.1073-1.3008.0483-2.5256-.2849-3.7926l-.0311-7.5588c.0485-.1652.2181-.6735.2178-.8474-.0052-3.4088.4227-6.9294.9533-10.3117l.3818-2.4337,1.0946-4.9902,1.5977-5.6035c1.1044-3.8733,2.634-7.3913,4.4395-11.0209,3.3499-6.7342,7.463-12.848,12.378-18.5457l2.615-2.6483,1.9672-1.7524,1.439-1.133c2.2818-1.7966,4.7461-3.1887,7.5102-4.2112C43.1691.1232,45.9149-.1081,48.8164.0417c4.2042.217,8.0304,2.0138,11.2145,4.7777,4.8121,4.1772,7.3074,10.3191,7.1452,16.6822-.0484,1.8977-.147,3.5977-.5257,5.4268-.5796,2.7992-1.4508,5.4678-2.6193,8.097l-3.6146,8.1324c-2.964,6.6685-6.3302,17.716-5.9093,25.05l2.9556-.7811c2.5501-.6739,5.0361-1.3371,7.7039-1.3367l7.3922.0011,3.5258.3899,2.8258.5366.5703-4.6638c.9569-5.3355,2.4752-10.3853,4.5015-15.4493,3.0901-7.7224,7.4238-14.7239,12.7744-21.0568l1.8537-2.077,3.6017-3.6101c2.4261-2.4318,5.1228-4.4417,8.0215-6.2476l3.8318-2.0607c1.3813-.7428,2.8061-1.2393,4.3369-1.5456l2.6039-.5211c1.5465-.3095,2.9611-.199,4.5201-.0104,3.0749.3721,5.8132,1.4349,8.4226,3.1502,4.2117,2.7686,7.0112,7.0366,8.4143,11.8949.6795,2.3526,1.1451,6.1827.8135,8.4543l-.5865,4.0183-1.5037,4.9136c-1.3656,3.4249-3.1196,6.5059-5.0046,9.6492l-4.5544,7.5944-4.4755,8.8363c-2.4662,5.6579-4.6291,13.2319-4.4999,19.3608l4.0331,4.4584,3.1819,4.0668,3.7505,5.6509c11.0388,18.5022,12.5584,39.08,2.4253,58.4599ZM61.8406,17.2c-1.2633-6.0343-6.0125-10.7816-12.0402-11.9434-3.2025-.6172-6.2166-.0039-9.1661,1.2762-3.1291,1.5906-5.7837,3.6926-8.2792,6.2094-4.2068,4.2426-7.7271,8.9668-10.6949,14.2478,13.4374-4.2386,26.6083-6.1584,40.1805-9.79ZM127.5931,30.069c3.7772.4281,7.0635.9789,10.7618,1.9415.1641-5.8909-2.0052-11.1318-6.7505-14.5948-6.3636-4.644-13.5302-2.8379-19.7192,1.4634-4.7329,3.2894-8.8367,7.2475-12.5416,11.8369,9.5747-1.2772,18.7622-1.6162,28.2496-.647ZM19.0394,48.6159c12.3759-5.664,25.6009-9.2576,38.8656-11.6738,2.4044-5.4999,4.8137-10.8607,4.4445-17.0413l-18.5319,4.2713-14.4476,3.3556c-3.3401.7758-6.3863,1.793-9.7032,2.9011-3.7096,6.8185-6.1826,14.5171-7.4896,22.1243,2.4363-1.5447,4.4341-2.725,6.8621-3.9373ZM130.0984,52.2542l3.3281-5.5997c1.494-2.5138,2.6548-5.1049,3.7364-7.8108l1.0109-4.1077c-4.3128-1.2339-8.4794-1.8121-12.9504-2.1681-9.4932-.7558-18.93-.2306-28.3583,1.2022-3.942,5.2328-6.9853,10.9379-9.2466,17.1055,2.8069-.7613,5.2984-1.2999,8.046-1.6766,11.3344-1.5139,23.4259-.5508,34.4339,3.0551ZM34.1425,49.1929c5.9531,1.7235,11.5966,3.739,17.0186,6.37,1.356-5.4419,2.9988-10.4595,5.2809-15.5747-9.4835,1.7494-18.8121,4.2754-27.92,7.6398l5.6205,1.565ZM16.7709,69.6535c5.3533-3.735,10.805-6.7756,16.6771-9.4336l11.1181-4.5633c-6.8905-2.717-13.6956-4.6827-20.7458-6.0841-4.4504,1.819-8.5644,3.9839-12.2064,6.9876-.931,5.9963-.8952,11.8205-.552,17.8427,1.8199-1.7264,3.5909-3.2182,5.7091-4.7492ZM127.4424,56.76l-3.1168-3.4152c-8.5293-1.9927-17.3582-2.7626-26.3646-1.6925,7.9552,6.4652,15.3603,12.9586,22.4953,20.3408,1.8507-5.4031,4.2259-10.3211,6.9861-15.233ZM117.6258,87.5198c.006-4.2308.6779-8.3763,1.8822-12.5741-7.985-8.1567-16.3391-15.6335-25.354-22.7583-2.5773.4369-4.9844,1.0626-7.5732,1.9382-1.7757,5.0505-2.7671,10.2929-3.1017,15.7013,10.8679,6.867,22.0562,12.7838,34.1467,17.6929ZM25.3491,85.692c3.6977-2.3381,7.2399-4.2996,11.0239-6.3143l13.1813-7.0179c-.3294-4.7281.1116-9.2968,1.0027-13.9907l-2.1701-1.1982c-11.4675,4.1504-23.5952,9.2983-33.0137,17.0564-1.5598,1.2848-2.9092,2.6065-4.0835,4.1905.657,5.4495,1.6951,10.5225,3.382,15.7287,3.3585-3.278,6.7917-5.9275,10.6775-8.4545ZM70.1502,83.489c5.8137-2.2776,11.153-4.969,16.4925-8.0657l-3.9636-2.4936c-4.5258-1.3335-9.1226-2.0571-13.9284-2.0668-5.8016.1429-11.3512,1.2901-16.6604,3.4503l-12.3519,6.6684,23.2641,5.3077,7.1479-2.8003ZM85.9039,92.5299c8.2081-1.9154,16.191-3.4212,24.6537-4.4815-7.3562-3.2287-14.3533-6.8495-21.2146-11.003-6.9788,4.1514-14.1234,7.4986-21.7682,10.4214l18.3291,5.0631ZM130.7625,130.4881l7.1164,4.0546c.2543-7.1497-1.2059-13.9687-3.8024-20.5666-3.1482-1.9926-6.2818-3.6357-9.7444-5.1654-8.4452-3.731-17.1388-6.7875-25.982-9.6217-20.4627-6.5581-41.1532-11.8996-62.3211-16.282-4.3457,2.2933-8.4752,4.87-12.4485,7.7494-2.4243,1.7569-4.5802,3.521-6.8222,5.7894l19.7008,3.8003c14.1228,3.0798,27.967,6.8251,41.8223,10.9814,17.0426,5.1124,36.6136,11.3434,52.4812,19.2607ZM132.063,109.51c-1.1269-2.6874-2.4973-4.9571-4.0232-7.3145-2.6432-4.0838-5.6638-7.7994-9.2282-11.0721l-2.5903-1.0064c-8.3631.8688-16.6083,2.1017-25.0468,3.9415,13.8995,4.3927,27.6749,8.6637,40.8886,15.4516ZM20.8414,108.5801c5.7972-2.0729,11.4664-3.5474,17.3117-5.1128-7.2215-1.7223-14.1273-3.0416-21.1566-4.2365-3.5296,4.4985-6.3202,9.2486-8.44,14.5041,4.1272-2.0336,7.9926-3.6299,12.2849-5.1549ZM9.017,133.9515c11.1448-6.0572,23.9713-9.8754,36.1739-13.0673,10.887-2.8272,21.7397-4.8418,33.1171-6.6083-11.2433-3.5591-22.3753-6.5472-33.8867-9.4154-8.8881,1.8827-17.6072,4.2953-26.1265,7.5133-3.7819,1.4397-7.2498,2.9772-10.7795,4.9155l-.7194,1.6397c-1.7886,5.6741-2.2813,11.5561-1.8449,17.5199l4.066-2.4974ZM58.0516,154.1099c9.1913.0307,17.9134-.7082,26.8137-2.1241,12.2477-1.8898,24.1654-4.9227,35.7436-9.2564,4.7671-1.9383,9.3236-3.8852,13.723-6.6713-4.9705-2.882-9.8779-5.1233-15.0217-7.3288-11.3581-4.7874-22.9106-8.8928-34.61-12.5807-10.1856,1.3939-20.136,3.1007-30.102,5.3444-7.7814,1.8282-15.3322,3.7726-22.9155,6.2497-7.2156,2.352-14.1428,4.9972-20.8293,8.6335,9.7626,5.0309,19.5045,9.0137,29.6439,12.4532l17.5545,5.2805ZM79.5658,159.4174c10.6753,2.1862,21.0744,3.7788,31.8875,4.5958,6.8084-1.2732,13.3661-3.0937,19.9-5.4972,3.3012-6.092,5.429-12.6333,6.2914-19.513.0216-.3372-.059-.8683-.2625-.9725-.1696-.0869-.5388-.1263-.7732-.1161-3.4911,2.1739-6.9359,3.9455-10.6959,5.6014-5.3166,2.2439-10.6139,4.1278-16.1877,5.7354-13.7242,4.0261-27.5973,6.3669-42.0457,7.4028l11.8861,2.7635ZM106.9929,181.5355l1.9929-.1645c6.2573-3.6652,11.7404-8.3141,16.3636-13.969-14.1319-.1421-27.9771-1.63-41.8009-4.2427-11.2742-2.1308-22.2698-4.9976-33.2492-8.2341-14.7692-4.3537-28.6379-9.6943-42.2071-16.9703l-2.8345,1.8742c.6761,5.538,2.082,10.8352,4.4918,15.8093,4.4226,2.486,8.7334,4.5776,13.3514,6.5242,10.6262,4.4791,21.4811,8.0873,32.6005,11.2353,10.4669,2.9632,20.9841,5.1059,31.743,6.6043,6.5322.9097,12.8568,1.567,19.5484,1.5335ZM33.6049,169.282l-7.7849-3.0178-13.9345-6.4288c2.474,4.4888,5.5311,8.2381,8.8954,11.8744,4.3833-.5721,8.4533-1.3422,12.8239-2.4278ZM127.4101,164.8067l1.8253-2.7012-8.0907,2.4784,6.2654.2229ZM70.8558,180.1268c-11.3201-2.4853-22.0384-5.5601-32.8882-9.2776-4.7701,1.4194-9.548,2.3963-14.5832,3.1494,6.0447,5.5566,12.902,9.5911,20.4213,12.4933,9.2137-1.1574,18.1938-3.1341,27.0502-6.3651ZM103.5096,184.2934l-10.9331-.7561-16.4092-2.3854c-8.5195,3.3915-17.286,5.6613-26.3017,7.2706l5.1295,1.3928c16.0735,3.3809,33.6814,1.7687,48.5145-5.5219Z"/>
      <path class="cls-5" d="M58.0516,154.1099l-17.5545-5.2805c-10.1394-3.4396-19.8813-7.4223-29.6439-12.4532,6.6866-3.6363,13.6137-6.2815,20.8293-8.6335,7.5833-2.4771,15.1341-4.4216,22.9155-6.2497,9.966-2.2437,19.9164-3.9505,30.102-5.3444,11.6994,3.688,23.2519,7.7933,34.61,12.5807,5.1438,2.2055,10.0512,4.4468,15.0217,7.3288-4.3994,2.7861-8.9559,4.733-13.723,6.6713-11.5782,4.3337-23.4959,7.3666-35.7436,9.2564-8.9003,1.416-17.6223,2.1549-26.8137,2.1241ZM51.0297,136.6968c0-3.7935-3.0746-6.8687-6.8674-6.8687s-6.8674,3.0752-6.8674,6.8687,3.0746,6.8687,6.8674,6.8687,6.8674-3.0752,6.8674-6.8687ZM106.614,136.6812c0-3.798-3.0783-6.8769-6.8756-6.8769s-6.8756,3.0789-6.8756,6.8769,3.0783,6.8769,6.8756,6.8769,6.8756-3.0789,6.8756-6.8769Z"/>
      <path class="cls-7" d="M130.7625,130.4881c-15.8676-7.9173-35.4386-14.1483-52.4812-19.2607-13.8552-4.1563-27.6994-7.9016-41.8223-10.9814l-19.7008-3.8003c2.242-2.2684,4.3979-4.0325,6.8222-5.7894,3.9733-2.8794,8.1028-5.4561,12.4485-7.7494,21.1679,4.3825,41.8584,9.7239,62.3211,16.282,8.8432,2.8342,17.5368,5.8907,25.982,9.6217,3.4626,1.5297,6.5962,3.1729,9.7444,5.1654,2.5965,6.598,4.0567,13.4169,3.8024,20.5666l-7.1164-4.0546Z"/>
      <path class="cls-1" d="M106.9929,181.5355c-6.6916.0335-13.0162-.6238-19.5484-1.5335-10.7589-1.4984-21.2761-3.641-31.743-6.6043-11.1194-3.1479-21.9743-6.7562-32.6005-11.2353-4.618-1.9465-8.9289-4.0382-13.3514-6.5242-2.4097-4.9741-3.8157-10.2713-4.4918-15.8093l2.8345-1.8742c13.5692,7.276,27.4378,12.6165,42.2071,16.9703,10.9794,3.2366,21.975,6.1033,33.2492,8.2341,13.8238,2.6127,27.6691,4.1006,41.8009,4.2427-4.6232,5.655-10.1063,10.3038-16.3636,13.969l-1.9929.1645Z"/>
      <path class="cls-2" d="M9.017,133.9515l-4.066,2.4974c-.4364-5.9638.0563-11.8458,1.8449-17.5199l.7194-1.6397c3.5296-1.9382,6.9976-3.4758,10.7795-4.9155,8.5193-3.218,17.2384-5.6306,26.1265-7.5133,11.5114,2.8682,22.6434,5.8563,33.8867,9.4154-11.3774,1.7666-22.2301,3.7811-33.1171,6.6083-12.2026,3.1919-25.0291,7.0101-36.1739,13.0673Z"/>
      <path class="cls-7" d="M19.0394,48.6159c-2.428,1.2123-4.4258,2.3926-6.8621,3.9373,1.3069-7.6073,3.78-15.3059,7.4896-22.1243,3.3169-1.1081,6.3631-2.1253,9.7032-2.9011l14.4476-3.3556,18.5319-4.2713c.3692,6.1805-2.0401,11.5414-4.4445,17.0413-13.2647,2.4162-26.4897,6.0098-38.8656,11.6738Z"/>
      <path class="cls-3" d="M130.0984,52.2542c-11.008-3.6059-23.0995-4.5689-34.4339-3.0551-2.7475.3767-5.2391.9153-8.046,1.6766,2.2613-6.1676,5.3046-11.8728,9.2466-17.1055,9.4283-1.4328,18.8651-1.9581,28.3583-1.2022,4.471.356,8.6376.9342,12.9504,2.1681l-1.0109,4.1077c-1.0815,2.7059-2.2423,5.2971-3.7364,7.8108l-3.3281,5.5997Z"/>
      <path class="cls-4" d="M79.5658,159.4174l-11.8861-2.7635c14.4484-1.0359,28.3215-3.3767,42.0457-7.4028,5.5738-1.6076,10.8712-3.4915,16.1877-5.7354,3.76-1.656,7.2048-3.4275,10.6959-5.6014.2344-.0102.6035.0293.7732.1161.2035.1042.2842.6354.2625.9725-.8624,6.8797-2.9902,13.421-6.2914,19.513-6.5339,2.4035-13.0917,4.224-19.9,5.4972-10.8131-.817-21.2121-2.4096-31.8875-4.5958Z"/>
      <path class="cls-5" d="M117.6258,87.5198c-12.0906-4.9091-23.2788-10.8259-34.1467-17.6929.3346-5.4084,1.3261-10.6508,3.1017-15.7013,2.5888-.8756,4.9959-1.5014,7.5732-1.9382,9.0149,7.1249,17.3689,14.6016,25.354,22.7583-1.2043,4.1978-1.8762,8.3432-1.8822,12.5741Z"/>
      <path class="cls-7" d="M25.3491,85.692c-3.8858,2.527-7.3189,5.1765-10.6775,8.4545-1.6869-5.2062-2.725-10.2793-3.382-15.7287,1.1743-1.5839,2.5238-2.9056,4.0835-4.1905,9.4185-7.7581,21.5462-12.9059,33.0137-17.0564l2.1701,1.1982c-.8911,4.6939-1.3321,9.2626-1.0027,13.9907l-13.1813,7.0179c-3.784,2.0146-7.3262,3.9761-11.0239,6.3143Z"/>
      <path class="cls-5" d="M61.8406,17.2c-13.5722,3.6316-26.7431,5.5514-40.1805,9.79,2.9678-5.2811,6.4881-10.0053,10.6949-14.2478,2.4955-2.5167,5.1501-4.6188,8.2792-6.2094,2.9495-1.2801,5.9637-1.8934,9.1661-1.2762,6.0277,1.1618,10.777,5.9091,12.0402,11.9434Z"/>
      <path class="cls-4" d="M70.1502,83.489l-7.1479,2.8003-23.2641-5.3077,12.3519-6.6684c5.3093-2.1602,10.8589-3.3074,16.6604-3.4503,4.8058.0098,9.4026.7333,13.9284,2.0668l3.9636,2.4936c-5.3395,3.0967-10.6788,5.7881-16.4925,8.0657Z"/>
      <path class="cls-5" d="M127.5931,30.069c-9.4874-.9693-18.6748-.6303-28.2496.647,3.7049-4.5894,7.8087-8.5475,12.5416-11.8369,6.189-4.3014,13.3557-6.1074,19.7192-1.4634,4.7453,3.4631,6.9147,8.7039,6.7505,14.5948-3.6983-.9626-6.9846-1.5134-10.7618-1.9415Z"/>
      <path class="cls-5" d="M16.7709,69.6535c-2.1181,1.531-3.8891,3.0229-5.7091,4.7492-.3431-6.0222-.379-11.8464.552-17.8427,3.642-3.0038,7.756-5.1686,12.2064-6.9876,7.0501,1.4014,13.8553,3.3672,20.7458,6.0841l-11.1181,4.5633c-5.8721,2.658-11.3237,5.6986-16.6771,9.4336Z"/>
      <path class="cls-4" d="M70.8558,180.1268c-8.8564,3.231-17.8365,5.2077-27.0502,6.3651-7.5193-2.9023-14.3766-6.9367-20.4213-12.4933,5.0352-.7532,9.8131-1.73,14.5832-3.1494,10.8499,3.7176,21.5682,6.7923,32.8882,9.2776Z"/>
      <path class="cls-5" d="M85.9039,92.5299l-18.3291-5.0631c7.6448-2.9228,14.7894-6.27,21.7682-10.4214,6.8613,4.1535,13.8584,7.7742,21.2146,11.003-8.4627,1.0603-16.4456,2.5661-24.6537,4.4815Z"/>
      <path class="cls-6" d="M103.5096,184.2934c-14.8332,7.2906-32.441,8.9028-48.5145,5.5219l-5.1295-1.3928c9.0158-1.6094,17.7822-3.8791,26.3017-7.2706l16.4092,2.3854,10.9331.7561Z"/>
      <path class="cls-4" d="M127.4424,56.76c-2.7602,4.9119-5.1354,9.8299-6.9861,15.233-7.135-7.3822-14.5401-13.8756-22.4953-20.3408,9.0064-1.0701,17.8354-.3002,26.3646,1.6925l3.1168,3.4152Z"/>
      <path class="cls-2" d="M132.063,109.51c-13.2136-6.7879-26.9891-11.0589-40.8886-15.4516,8.4386-1.8398,16.6837-3.0727,25.0468-3.9415l2.5903,1.0064c3.5644,3.2728,6.585,6.9883,9.2282,11.0721,1.5258,2.3574,2.8963,4.6272,4.0232,7.3145Z"/>
      <path class="cls-2" d="M34.1425,49.1929l-5.6205-1.565c9.1078-3.3644,18.4365-5.8904,27.92-7.6398-2.2821,5.1152-3.9248,10.1329-5.2809,15.5747-5.422-2.631-11.0655-4.6465-17.0186-6.37Z"/>
      <path class="cls-5" d="M20.8414,108.5801c-4.2923,1.525-8.1577,3.1212-12.2849,5.1549,2.1198-5.2556,4.9104-10.0056,8.44-14.5041,7.0293,1.1949,13.935,2.5142,21.1566,4.2365-5.8453,1.5654-11.5145,3.0399-17.3117,5.1128Z"/>
      <path class="cls-5" d="M33.6049,169.282c-4.3706,1.0856-8.4406,1.8557-12.8239,2.4278-3.3644-3.6363-6.4214-7.3856-8.8954-11.8744l13.9345,6.4288,7.7849,3.0178Z"/>
      <polygon class="cls-5" points="127.4101 164.8067 121.1447 164.5838 129.2354 162.1054 127.4101 164.8067"/>
      <circle cx="99.7384" cy="136.6812" r="6.8763"/>
      <circle cx="44.1623" cy="136.6968" r="6.868"/>
    </g>
  </g>
</svg>